# xmcd
#
# Track frame offsets:
#	150
#	18861
#	38246
#	53138
#	68727
#	87051
#	100340
#	115185
#	129393
#	147495
#	160886
#	181153
#	191734
#	210662
#	219830
#
# Disc length: 3194 seconds
#
# Revision: 0
# Processed by: cddbd v1.5.1PL2 Copyright (c) Steve Scherf et al.
# Submitted via: EasyCDDAExtractor 8.2.3.1
#
DISCID=cb0c780f
DTITLE=Various Artist - CDX Volume 383
DYEAR=2005
DGENRE=Country
TTITLE0=Brice Long - Anywhere But Here
TTITLE1=Bobby Bare - Are You Sincere
TTITLE2=Clint Black - Drinkin' Songs And Other Logic
TTITLE3=Garth Brooks - Good Ride Cowboy
TTITLE4=Tracy Lawrence - If I Don't Make It Back
TTITLE5=Jamie O'Neal - I Love My Life
TTITLE6=SheDaisy - I'm Taking The Wheel
TTITLE7=Jason Aldean - Why
TTITLE8=Geno Bush - Afraid
TTITLE9=Randy Huston - Hurricane Deck
TTITLE10=Scarlett - There's Nothin' Here
TTITLE11=Bob Wooton - You Walked Tall
TTITLE12=Pirates of the Mississippi - A Snowman In Birmingham
TTITLE13=Peasall Sisters - Hark The Herald Angels Sing
TTITLE14=Tim Aaron - This Christmas Eve
EXTD=
EXTT0=
EXTT1=
EXTT2=
EXTT3=
EXTT4=
EXTT5=
EXTT6=
EXTT7=
EXTT8=
EXTT9=
EXTT10=
EXTT11=
EXTT12=
EXTT13=
EXTT14=
PLAYORDER=
